<svg id="Laag_1" data-name="Laag 1" xmlns="http://www.w3.org/2000/svg" viewBox="0 0 1750 400"><defs><style>.cls-1{fill:#212529;}.cls-2{fill:#ead009;}.cls-3{fill:#000666;}.cls-4{fill:#7c0e19;}</style></defs><path d="M274.15,142.47c0,15.26-60.75,27.62-135.69,27.62S2.78,157.73,2.78,142.47c0-6.43,10.81-12.36,28.94-17h0c4.36-1.13,9.14-2.19,14.3-3.16,9.55,1.8,20.33,3.31,32.08,4.5,18.2,1.84,38.69,2.87,60.36,2.87,35.65,0,68.09-2.79,92.45-7.37,5.16,1,9.94,2,14.3,3.16h0C263.34,130.11,274.15,136,274.15,142.47Z"/><path class="cls-1" d="M138.46,88.14c-21.67,0-42.16-1-60.37-2.87S44,80.79,31.41,77.55l-.21,0v9.82l1,.26c6,1.55,12.78,3,20.28,4.23,10,1.68,21.21,3.07,33.33,4.12,16.18,1.39,34,2.16,52.65,2.16,21.55,0,41.92-1,60-2.85s33.81-4.44,46.1-7.61l1.18-.31V77.5q-5.11,1.32-10.94,2.51C210.06,85,176,88.13,138.46,88.14Z"/><path class="cls-1" d="M32.2,101.39c6,1.55,12.78,3,20.28,4.23,10,1.68,21.21,3.07,33.33,4.12,16.18,1.39,34,2.16,52.65,2.16,21.55,0,41.92-1,60-2.85s33.81-4.44,46.1-7.61l1.18-.31V91.31q-5.11,1.32-10.94,2.51c-24.73,5-58.75,8.12-96.33,8.12-21.67,0-42.16-1-60.37-2.86S44,94.6,31.41,91.36l-.21,0v9.82Z"/><path class="cls-1" d="M138.46,74.33c-21.67,0-42.16-1-60.37-2.87S44,67,31.41,63.74l-.21-.05v9.82l1,.27c6,1.54,12.78,3,20.28,4.22,10,1.68,21.21,3.07,33.33,4.12,16.18,1.39,34,2.16,52.65,2.16,21.55,0,41.92-1,60-2.85s33.81-4.44,46.1-7.61l1.18-.31V63.69Q240.62,65,234.79,66.2C210.06,71.23,176,74.32,138.46,74.33Z"/><path class="cls-1" d="M245.73,105.18V115l-1.18.31a255.29,255.29,0,0,1-25.15,5c-6.55,1-13.56,1.88-21,2.62-18.07,1.83-38.44,2.85-60,2.85-18.68,0-36.47-.77-52.64-2.16-10.13-.87-19.62-2-28.29-3.31-1.72-.26-3.4-.53-5.06-.81-7.49-1.25-14.29-2.67-20.27-4.22l-1-.27v-9.82l.21,0C44,108.47,59.89,111.11,78.1,113c10.92,1.1,22.66,1.91,35,2.39,8.22.31,16.7.48,25.37.48s17.14-.17,25.35-.48c27.42-1,51.95-3.78,71-7.65Q240.61,106.51,245.73,105.18Z"/><path class="cls-1" d="M245.73,119v6.29l-.52.14h0l-.66.17c-12.29,3.17-28,5.79-46.1,7.61s-38.44,2.85-60,2.85c-18.68,0-36.47-.77-52.64-2.16-12.13-1-23.35-2.44-33.35-4.12-7.49-1.26-14.29-2.68-20.27-4.23l-.48-.12h0l-.52-.14V119l.21.05c4.46,1.15,9.35,2.23,14.61,3.22,9.55,1.8,20.33,3.31,32.08,4.5,18.2,1.84,38.69,2.87,60.36,2.87,35.65,0,68.09-2.79,92.45-7.37,1.32-.25,2.61-.5,3.88-.76Q240.61,120.32,245.73,119Z"/><path class="cls-1" d="M138.46,60.52c-21.67,0-42.16-1-60.37-2.87S44,53.17,31.41,49.93l-.21,0V59.7l1,.27c6,1.54,12.78,3,20.28,4.22,10,1.68,21.21,3.07,33.33,4.12,16.18,1.39,34,2.16,52.65,2.16,21.55,0,41.92-1,60-2.85s33.81-4.44,46.1-7.61l1.18-.31V49.88q-5.11,1.32-10.94,2.51C210.06,57.42,176,60.51,138.46,60.52Z"/><path d="M452.53,200.41c-59.23-45.9-114.83-73.34-124.17-61.28s31.1,59,90.33,104.94,114.83,73.34,124.17,61.28S511.76,246.31,452.53,200.41Zm15.5,47c-2.82,3.64-19.63-4.65-37.53-18.53s-30.14-28.08-27.31-31.73,19.63,4.65,37.53,18.53S470.86,243.72,468,247.37Z"/><path d="M473.18,395.26C463.84,407.32,408.25,379.88,349,334S249.34,241.1,258.68,229c3.95-5.09,16.12-3.15,33.32,4.24h0c4.13,1.78,8.56,3.87,13.23,6.25,6.45,7.28,14.05,15.08,22.6,23.21,13.27,12.61,28.83,26,46,39.25,28.18,21.83,55.53,39.5,77.59,50.8,3.48,3.93,6.61,7.7,9.36,11.26h0C472.2,378.87,477.12,390.18,473.18,395.26Z"/><path class="cls-2" d="M399.22,269.2c-17.13-13.27-32.7-26.64-46-39.25S329,205.51,321.08,195.26l-.13-.17-6,7.76.63.83c3.78,4.88,8.29,10.17,13.44,15.75,6.87,7.45,14.88,15.42,23.83,23.68,11.93,11,25.52,22.52,40.29,34,17,13.2,33.76,24.87,49.16,34.49s29.45,17.2,41.1,22.23l1.12.47,6-7.76q-4.84-2.08-10.18-4.72C457.7,310.61,428.92,292.22,399.22,269.2Z"/><path class="cls-2" d="M307.1,214.59c3.78,4.88,8.29,10.17,13.44,15.76,6.87,7.45,14.88,15.42,23.83,23.68,11.93,11,25.52,22.51,40.29,34,17,13.2,33.76,24.86,49.16,34.49s29.45,17.2,41.11,22.22l1.11.48,6-7.77q-4.85-2.09-10.18-4.71c-22.64-11.18-51.42-29.57-81.12-52.58-17.13-13.28-32.7-26.65-46-39.25s-24.23-24.44-32.18-34.69l-.13-.18-6,7.77Z"/><path class="cls-2" d="M407.68,258.29C390.55,245,375,231.64,361.71,219s-24.23-24.44-32.17-34.7l-.13-.17-6,7.77.63.82c3.78,4.88,8.28,10.17,13.44,15.76,6.87,7.45,14.88,15.42,23.83,23.67,11.93,11,25.52,22.52,40.29,34,17,13.2,33.76,24.87,49.15,34.5s29.46,17.2,41.11,22.22l1.12.48,6-7.77q-4.86-2.08-10.18-4.71C466.16,299.69,437.38,281.3,407.68,258.29Z"/><path class="cls-2" d="M473.56,348.38l-6,7.76-1.11-.47a254.62,254.62,0,0,1-22.94-11.47c-5.79-3.22-11.87-6.82-18.17-10.76-15.4-9.62-32.12-21.29-49.16-34.49C361.4,287.51,347.8,276,335.87,265c-7.47-6.89-14.28-13.58-20.33-19.94-1.2-1.26-2.36-2.5-3.5-3.74-5.15-5.58-9.66-10.87-13.44-15.75l-.62-.83,6-7.76.14.17c7.94,10.25,18.9,22.09,32.17,34.7,8,7.56,16.74,15.39,26.2,23.32,6.3,5.28,12.91,10.61,19.76,15.92s13.65,10.37,20.33,15.15c22.32,16,43.37,28.83,60.79,37.43Q468.71,346.29,473.56,348.38Z"/><path class="cls-2" d="M465.1,359.29l-3.85,5-.5-.21h0l-.62-.27c-11.65-5-25.71-12.6-41.11-22.22s-32.12-21.3-49.15-34.5c-14.77-11.44-28.36-22.95-40.29-34-8.95-8.25-17-16.22-23.83-23.67-5.16-5.59-9.66-10.87-13.44-15.76l-.3-.39h0l-.32-.42,3.85-5c.05.06.09.12.14.17q4.23,5.47,9.57,11.49c6.45,7.28,14.05,15.08,22.6,23.21,13.27,12.61,28.83,26,46,39.25,28.18,21.83,55.53,39.5,77.59,50.8l3.53,1.78Q460.25,357.21,465.1,359.29Z"/><path class="cls-2" d="M416.13,247.37c-17.13-13.28-32.69-26.64-46-39.25S345.94,183.68,338,173.43l-.13-.17-6,7.76.63.82c3.77,4.89,8.28,10.18,13.44,15.76,6.87,7.45,14.88,15.42,23.83,23.68,11.93,11,25.52,22.52,40.29,34,17,13.2,33.76,24.87,49.15,34.49s29.46,17.2,41.11,22.23l1.12.47,6-7.76q-4.86-2.09-10.19-4.72C474.62,288.78,445.84,270.39,416.13,247.37Z"/><path d="M274.15,255.47c0,15.25-60.75,27.62-135.69,27.62S2.78,270.72,2.78,255.47c0-6.44,10.81-12.36,28.94-17.06h0c4.36-1.12,9.14-2.18,14.3-3.16,9.55,1.8,20.33,3.32,32.08,4.5,18.2,1.84,38.69,2.87,60.36,2.87,35.65,0,68.09-2.79,92.45-7.37,5.16,1,9.94,2,14.3,3.16h0C263.34,243.11,274.15,249,274.15,255.47Z"/><path class="cls-3" d="M138.46,201.13c-21.67,0-42.16-1-60.37-2.87S44,193.78,31.41,190.55l-.21-.06v9.82l1,.27c6,1.55,12.78,3,20.28,4.22,10,1.68,21.21,3.08,33.33,4.12,16.18,1.39,34,2.16,52.65,2.16,21.55,0,41.92-1,60-2.84s33.81-4.45,46.1-7.62l1.18-.3v-9.83q-5.11,1.32-10.94,2.51C210.06,198,176,201.13,138.46,201.13Z"/><path class="cls-3" d="M32.2,214.39c6,1.55,12.78,3,20.28,4.22,10,1.68,21.21,3.08,33.33,4.12,16.18,1.39,34,2.16,52.65,2.16,21.55,0,41.92-1,60-2.84s33.81-4.45,46.1-7.62l1.18-.31V204.3q-5.11,1.32-10.94,2.51c-24.73,5-58.75,8.13-96.33,8.13-21.67,0-42.16-1-60.37-2.87S44,207.59,31.41,204.35l-.21,0v9.82Z"/><path class="cls-3" d="M138.46,187.32c-21.67,0-42.16-1-60.37-2.87S44,180,31.41,176.74l-.21-.06v9.82l1,.27c6,1.55,12.78,3,20.28,4.23,10,1.67,21.21,3.07,33.33,4.11,16.18,1.39,34,2.17,52.65,2.17,21.55,0,41.92-1,60-2.85s33.81-4.45,46.1-7.62l1.18-.3v-9.83q-5.11,1.32-10.94,2.51C210.06,184.22,176,187.32,138.46,187.32Z"/><path class="cls-3" d="M245.73,218.17V228l-1.18.3a252.4,252.4,0,0,1-25.15,5c-6.55,1-13.56,1.88-21,2.63-18.07,1.82-38.44,2.85-60,2.85-18.68,0-36.47-.77-52.64-2.17-10.13-.87-19.62-2-28.29-3.31-1.72-.26-3.4-.53-5.06-.8-7.49-1.26-14.29-2.68-20.27-4.23l-1-.26v-9.83l.21.06c12.56,3.24,28.48,5.88,46.69,7.71,10.92,1.11,22.66,1.92,35,2.39,8.22.32,16.7.48,25.37.48s17.14-.16,25.35-.48c27.42-1.05,51.95-3.77,71-7.65Q240.61,219.49,245.73,218.17Z"/><path class="cls-3" d="M245.73,232v6.3l-.52.13h0l-.66.17c-12.29,3.17-28,5.79-46.1,7.62S160,249,138.46,249c-18.68,0-36.47-.77-52.64-2.16-12.13-1-23.35-2.44-33.35-4.12-7.49-1.25-14.29-2.67-20.27-4.22l-.48-.13h0l-.52-.14V232l.21.06c4.46,1.15,9.35,2.22,14.61,3.21,9.55,1.8,20.33,3.32,32.08,4.5,18.2,1.84,38.69,2.87,60.36,2.87,35.65,0,68.09-2.79,92.45-7.37,1.32-.25,2.61-.5,3.88-.76Q240.61,233.3,245.73,232Z"/><path class="cls-3" d="M138.46,173.51c-21.67,0-42.16-1-60.37-2.87S44,166.17,31.41,162.93l-.21-.06v9.83l1,.26c6,1.55,12.78,3,20.28,4.23,10,1.67,21.21,3.07,33.33,4.11,16.18,1.4,34,2.17,52.65,2.17,21.55,0,41.92-1,60-2.85s33.81-4.44,46.1-7.62l1.18-.3v-9.83q-5.11,1.32-10.94,2.51C210.06,170.42,176,173.51,138.46,173.51Z"/><path d="M274.15,369.47c0,15.25-60.75,27.62-135.69,27.62S2.78,384.72,2.78,369.47c0-6.44,10.81-12.36,28.94-17.05h0c4.36-1.13,9.14-2.19,14.3-3.17,9.55,1.8,20.33,3.32,32.08,4.51,18.2,1.83,38.69,2.86,60.36,2.86,35.65,0,68.09-2.78,92.45-7.37,5.16,1,9.94,2,14.3,3.17h0C263.34,357.11,274.15,363,274.15,369.47Z"/><path class="cls-4" d="M138.46,315.13c-21.67,0-42.16-1-60.37-2.87S44,307.79,31.41,304.55l-.21-.06v9.83l1,.26c6,1.55,12.78,3,20.28,4.23,10,1.68,21.21,3.07,33.33,4.11,16.18,1.4,34,2.17,52.65,2.17,21.55,0,41.92-1,60-2.85s33.81-4.44,46.1-7.61l1.18-.31v-9.83q-5.11,1.33-10.94,2.51C210.06,312,176,315.13,138.46,315.13Z"/><path class="cls-4" d="M32.2,328.39c6,1.55,12.78,3,20.28,4.23,10,1.67,21.21,3.07,33.33,4.11,16.18,1.4,34,2.17,52.65,2.17,21.55,0,41.92-1,60-2.85s33.81-4.44,46.1-7.61l1.18-.31V318.3q-5.11,1.33-10.94,2.51c-24.73,5-58.75,8.13-96.33,8.13-21.67,0-42.16-1-60.37-2.87S44,321.6,31.41,318.36l-.21-.06v9.83Z"/><path class="cls-4" d="M138.46,301.32c-21.67,0-42.16-1-60.37-2.87S44,294,31.41,290.74l-.21-.06v9.83l1,.26c6,1.55,12.78,3,20.28,4.23,10,1.68,21.21,3.07,33.33,4.11,16.18,1.4,34,2.17,52.65,2.17,21.55,0,41.92-1,60-2.85s33.81-4.44,46.1-7.61l1.18-.31v-9.83q-5.11,1.33-10.94,2.51C210.06,298.23,176,301.32,138.46,301.32Z"/><path class="cls-4" d="M245.73,332.17V342l-1.18.31c-7.25,1.87-15.72,3.55-25.15,5-6.55,1-13.56,1.88-21,2.62-18.07,1.83-38.44,2.85-60,2.85-18.68,0-36.47-.77-52.64-2.16-10.13-.88-19.62-2-28.29-3.31-1.72-.26-3.4-.53-5.06-.81-7.49-1.26-14.29-2.68-20.27-4.22l-1-.27v-9.83l.21.06C44,335.47,59.89,338.11,78.1,340c10.92,1.1,22.66,1.91,35,2.38,8.22.32,16.7.48,25.37.48s17.14-.16,25.35-.48c27.42-1.05,51.95-3.77,71-7.64Q240.61,333.51,245.73,332.17Z"/><path class="cls-4" d="M245.73,346v6.3l-.52.14h0l-.66.16c-12.29,3.18-28,5.8-46.1,7.62s-38.44,2.85-60,2.85c-18.68,0-36.47-.77-52.64-2.17-12.13-1-23.35-2.44-33.35-4.12-7.49-1.25-14.29-2.67-20.27-4.22l-.48-.12h0l-.52-.14V346l.21.06c4.46,1.15,9.35,2.22,14.61,3.21,9.55,1.8,20.33,3.32,32.08,4.51,18.2,1.83,38.69,2.86,60.36,2.86,35.65,0,68.09-2.78,92.45-7.37,1.32-.24,2.61-.5,3.88-.75Q240.61,347.31,245.73,346Z"/><path class="cls-4" d="M138.46,287.51c-21.67,0-42.16-1-60.37-2.86S44,280.17,31.41,276.93l-.21-.06v9.83l1,.26c6,1.55,12.78,3,20.28,4.23,10,1.68,21.21,3.07,33.33,4.12,16.18,1.39,34,2.16,52.65,2.16,21.55,0,41.92-1,60-2.85s33.81-4.44,46.1-7.61l1.18-.31v-9.82q-5.11,1.32-10.94,2.51C210.06,284.42,176,287.51,138.46,287.51Z"/><path d="M138.46,1.1C63.53,1.1,2.78,13.47,2.78,28.72S63.53,56.34,138.46,56.34,274.15,44,274.15,28.72,213.4,1.1,138.46,1.1Zm0,37c-26.67,0-48.3-4.18-48.3-9.34s21.63-9.33,48.3-9.33,48.31,4.18,48.31,9.33S165.14,38.06,138.46,38.06Z"/><path d="M522.54,44.08A3.59,3.59,0,0,0,519,47.65V57.4h38.66V74.94H519v76.67H501.43v-104a21.08,21.08,0,0,1,21.11-21.12h35.09V44.08Z"/><path d="M584.43,26.53H602V44.08H584.43Zm0,125.08V57.4H602v94.21Z"/><path d="M634.46,78.51v-52H652v104a3.62,3.62,0,0,0,3.58,3.57h17.54v17.54H655.58a21.07,21.07,0,0,1-21.12-21.11Z"/><path d="M774.48,57.4A21.07,21.07,0,0,1,795.6,78.51v73.1H720.88a21.07,21.07,0,0,1-21.12-21.11V95.73h78.3V78.51a3.62,3.62,0,0,0-3.58-3.57H699.76V57.4Zm3.58,76.67V113.28H717.3V130.5a3.62,3.62,0,0,0,3.58,3.57Z"/><path d="M945,57.4a21.07,21.07,0,0,1,21.12,21.11v73.1H948.78V78.51A3.4,3.4,0,0,0,947.72,76,3.61,3.61,0,0,0,945,74.94h-37.2a3.62,3.62,0,0,0-3.57,3.57v73.1H886.73V78.51a3.62,3.62,0,0,0-3.58-3.57H845.79a3.6,3.6,0,0,0-3.57,3.57v73.1H824.67V57.4Z"/><path d="M1074,57.4a21.08,21.08,0,0,1,21.12,21.11v34.77h-78.3V130.5a3.62,3.62,0,0,0,3.57,3.57h74.73v17.54h-74.73A21.07,21.07,0,0,1,999.3,130.5v-52a21.07,21.07,0,0,1,21.11-21.11Zm-57.18,38.33h60.75V78.51a3.6,3.6,0,0,0-3.57-3.57h-53.61a3.62,3.62,0,0,0-3.57,3.57Z"/><path d="M1203.16,57.4a21.07,21.07,0,0,1,21.11,21.11v73.1h-17.54V78.51a3.62,3.62,0,0,0-3.57-3.57h-53.61a3.6,3.6,0,0,0-3.57,3.57v73.1h-17.55V57.4Z"/><path d="M1313.78,74.94h-38.66V130.5a3.6,3.6,0,0,0,3.57,3.57h35.09v17.54h-35.09a21.08,21.08,0,0,1-21.12-21.11v-104h17.55V57.4h38.66Z"/><path d="M1359.75,134.07v17.54H1342.2V134.07Z"/><path d="M1471.34,57.4h17.54v73.1a21.07,21.07,0,0,1-21.11,21.11h-53.61A21.08,21.08,0,0,1,1393,130.5V57.4h17.55v73.1a3.6,3.6,0,0,0,3.57,3.57h53.61a3.6,3.6,0,0,0,3.57-3.57Z"/><path d="M1597.07,57.4a21.08,21.08,0,0,1,21.12,21.11v73.1h-17.55V78.51a3.6,3.6,0,0,0-3.57-3.57h-53.61a3.62,3.62,0,0,0-3.57,3.57v73.1h-17.54V57.4Z"/><path d="M1670.65,57.4h53.61a21.08,21.08,0,0,1,21.12,21.11v52a21.08,21.08,0,0,1-21.12,21.11h-53.61a21.07,21.07,0,0,1-21.11-21.11v-52a21.07,21.07,0,0,1,21.11-21.11Zm53.61,17.54h-53.61a3.62,3.62,0,0,0-3.57,3.57v52a3.62,3.62,0,0,0,3.57,3.57h53.61a3.6,3.6,0,0,0,3.57-3.57v-52a3.6,3.6,0,0,0-3.57-3.57Z"/><path d="M558.73,228.82v-38L542.41,220h-3.53l-16.39-29.11v38h-6.22v-49.1h6.57l17.77,31.88,17.84-31.88H565v49.1Z"/><path d="M571.59,228.82l20.2-49.1h5.12L617,228.82h-6.64l-5.81-14.38H584l-5.74,14.38Zm22.76-41.91-9.13,22.69h18Z"/><path d="M623.6,228.82v-49h6.23V206.9l25.31-27.18h6.71l-19.71,21.65L663,228.82h-6.77L638.33,205l-8.5,8.86v15Z"/><path d="M668.49,228.82v-49h6.22v49Z"/><path d="M692.69,191.34v37.48h-6.22v-49.1h4.84L721.74,218V179.79H728v49h-5.25Z"/><path d="M774.51,222.19q-6.51,7-14.94,7a19.6,19.6,0,0,1-9.09-2.14,24,24,0,0,1-7.23-5.64,27.2,27.2,0,0,1-4.81-8,25.27,25.27,0,0,1-1.76-9.27,26,26,0,0,1,6.5-17.32,22.69,22.69,0,0,1,7.26-5.43,21,21,0,0,1,9.13-2q7.13,0,11.72,3a19.63,19.63,0,0,1,7,7.74l-4.77,3.32a15,15,0,0,0-5.88-6.36,16.44,16.44,0,0,0-8.23-2.07,14.21,14.21,0,0,0-6.78,1.62,16.81,16.81,0,0,0-5.18,4.29,19.8,19.8,0,0,0-3.32,6.15,22.36,22.36,0,0,0-1.18,7.23,20.88,20.88,0,0,0,1.32,7.44,20.19,20.19,0,0,0,3.59,6.15,16.68,16.68,0,0,0,5.4,4.19,15.24,15.24,0,0,0,6.77,1.52q8,0,14.46-7.75V209H763.93v-4.7h15.83v24.48h-5.25Z"/><path d="M806.74,228.82v-49.1h32.43v5.53H813v16.39H835v5.19H813v22Z"/><path d="M846.92,228.82v-49h6.22v49Z"/><path d="M864.9,228.82v-49.1h6.22v43.57h27.39v5.53Z"/><path d="M900.59,228.82l20.19-49.1h5.12L946,228.82h-6.64l-5.8-14.38H913l-5.75,14.38Zm22.75-41.91-9.13,22.69h18Z"/><path d="M995.06,228.82v-38L978.74,220h-3.53l-16.39-29.11v38h-6.23v-49.1h6.57l17.78,31.88,17.84-31.88h6.5v49.1Z"/><path d="M1046.38,223.29v5.53H1013v-49.1h32.71v5.53h-26.49v15.91h23v5.19h-23v16.94Z"/><path d="M1061.45,191.34v37.48h-6.22v-49.1h4.84L1090.5,218V179.79h6.22v49h-5.25Z"/><path d="M1144,185.25h-17v43.57h-6.22V185.25h-16.94v-5.53H1144Z"/><path d="M1166.57,228.82v-49h6.23v49Z"/><path d="M1190.78,191.34v37.48h-6.22v-49.1h4.84L1219.83,218V179.79h6.22v49h-5.25Z"/><path d="M1239.05,179.72,1255.31,221l16.18-41.29h6.57L1258,228.82h-5.39l-20.13-49.1Z"/><path d="M1317.9,223.29v5.53h-33.34v-49.1h32.71v5.53h-26.48v15.91h23v5.19h-23v16.94Z"/><path d="M1333,191.34v37.48h-6.22v-49.1h4.84L1362,218V179.79h6.22v49H1363Z"/><path d="M1415.48,185.25h-16.94v43.57h-6.23V185.25h-16.94v-5.53h40.11Z"/><path d="M1440.58,229.17a20.94,20.94,0,0,1-9.44-2.11,23.37,23.37,0,0,1-7.29-5.6,25.31,25.31,0,0,1-4.7-8,26.28,26.28,0,0,1-1.66-9.2,25.39,25.39,0,0,1,1.76-9.4,26,26,0,0,1,4.87-8,23.53,23.53,0,0,1,7.37-5.49,21.08,21.08,0,0,1,9.23-2,20.23,20.23,0,0,1,9.41,2.18,24.28,24.28,0,0,1,7.26,5.71,26.5,26.5,0,0,1,6.36,17.08,25.44,25.44,0,0,1-1.76,9.41,26,26,0,0,1-4.84,7.92,23.36,23.36,0,0,1-7.33,5.46A21.11,21.11,0,0,1,1440.58,229.17Zm-16.8-24.9a21.86,21.86,0,0,0,1.21,7.23,20.14,20.14,0,0,0,3.42,6.19,16.56,16.56,0,0,0,5.33,4.29,15,15,0,0,0,6.91,1.59,14.54,14.54,0,0,0,7.06-1.7,17.26,17.26,0,0,0,5.29-4.42,19.85,19.85,0,0,0,3.32-6.19,22.24,22.24,0,0,0,1.14-7,21.86,21.86,0,0,0-1.21-7.23,19.32,19.32,0,0,0-3.46-6.15,17.38,17.38,0,0,0-5.32-4.25,15.61,15.61,0,0,0-13.87.07,16.8,16.8,0,0,0-5.29,4.35,20.08,20.08,0,0,0-3.36,6.16A21.85,21.85,0,0,0,1423.78,204.27Z"/><path d="M1472.47,228.82v-49.1h21a13.29,13.29,0,0,1,6,1.35,15,15,0,0,1,4.71,3.6,17,17,0,0,1,3.07,5,15.38,15.38,0,0,1,1.11,5.71,17,17,0,0,1-.72,4.94,15.36,15.36,0,0,1-2.08,4.33,13.85,13.85,0,0,1-3.25,3.32,12.68,12.68,0,0,1-4.25,2L1510,228.82h-7l-11.21-17.63h-13v17.63Zm6.22-23.16h14.87a7.31,7.31,0,0,0,3.49-.83,8.49,8.49,0,0,0,2.67-2.25,11.2,11.2,0,0,0,1.73-3.29,12.25,12.25,0,0,0,.62-3.87,10.41,10.41,0,0,0-.73-3.91,11.61,11.61,0,0,0-1.93-3.25,8.91,8.91,0,0,0-2.84-2.21,7.7,7.7,0,0,0-3.42-.8h-14.46Z"/><path d="M1517.63,179.72l14.87,25.59,15-25.59h6.77l-18.67,31.19v17.91h-6.22v-18l-18.61-31.05Z"/><path d="M1608.51,223.29v5.53h-33.34v-49.1h32.71v5.53h-26.49v15.91h23v5.19h-23v16.94Z"/><path d="M1612.24,228.82l20.19-49.1h5.12l20.13,49.1H1651l-5.81-14.38h-20.61l-5.74,14.38ZM1635,186.91l-9.13,22.69h18Z"/><path d="M1692.53,190a10.09,10.09,0,0,0-2.21-1.87,20.14,20.14,0,0,0-3.11-1.63,22.21,22.21,0,0,0-3.77-1.17,19.7,19.7,0,0,0-4.25-.45q-5.75,0-8.41,2.14a7.15,7.15,0,0,0-2.66,5.88,6.53,6.53,0,0,0,.76,3.32,6.29,6.29,0,0,0,2.39,2.25,18.23,18.23,0,0,0,4,1.62q2.43.69,5.74,1.46a57.64,57.64,0,0,1,6.88,1.9,19.77,19.77,0,0,1,5.26,2.66,10.68,10.68,0,0,1,3.32,3.87,12.45,12.45,0,0,1,1.14,5.6,12.87,12.87,0,0,1-1.38,6.13,12.31,12.31,0,0,1-3.77,4.28,16.31,16.31,0,0,1-5.64,2.49,29.66,29.66,0,0,1-7,.8,32.77,32.77,0,0,1-10.76-1.76,30.28,30.28,0,0,1-9.23-5.16l3-5.25a16.5,16.5,0,0,0,2.87,2.35,23.92,23.92,0,0,0,4,2.11,29.48,29.48,0,0,0,4.84,1.52,24.62,24.62,0,0,0,5.43.59c3.5,0,6.22-.63,8.16-1.87a6.92,6.92,0,0,0,2-9.1,7.91,7.91,0,0,0-2.73-2.45,21.22,21.22,0,0,0-4.46-1.83c-1.78-.53-3.8-1.08-6.06-1.63a58.69,58.69,0,0,1-6.57-1.94,17.64,17.64,0,0,1-4.73-2.49,9.26,9.26,0,0,1-2.87-3.52,11.67,11.67,0,0,1-1-5,14.16,14.16,0,0,1,1.31-6.23,13.11,13.11,0,0,1,3.67-4.56,15.85,15.85,0,0,1,5.6-2.8,25.57,25.57,0,0,1,7-.94,24.76,24.76,0,0,1,16.12,5.61Z"/><path d="M1705.88,179.72l14.87,25.59,15-25.59h6.78l-18.68,31.19v17.91h-6.22v-18L1699,179.72Z"/></svg>